<?xml version="1.0" encoding="utf-8"?>
<!-- Generator: Adobe Illustrator 22.1.0, SVG Export Plug-In . SVG Version: 6.00 Build 0)  -->
<svg version="1.1" id="Layer_1" xmlns="http://www.w3.org/2000/svg" xmlns:xlink="http://www.w3.org/1999/xlink" x="0px" y="0px"
	 viewBox="0 0 24 24" style="enable-background:new 0 0 24 24;" xml:space="preserve">
<style type="text/css">
	.st0{fill:#004985;}
	.st1{fill:#FFFFFF;}
</style>
<title>hh-mail-solid-icon</title>
<g id="Shapes_Circle">
	<g id="Mask-2-2">
		<circle id="path-1-2" class="st0" cx="12" cy="12" r="12"/>
	</g>
</g>
<g>
	<path class="st1" d="M6.1,7.7l5.9,4.1l5.9-4.1c0.1,0,0.1-0.1,0.2-0.1C17.9,7.3,17.5,7,17,7H7C6.5,7,6.1,7.3,5.9,7.6
		C6,7.7,6,7.7,6.1,7.7z"/>
	<path class="st1" d="M12.4,13.1c-0.2,0.2-0.5,0.2-0.7,0L5.8,9v6.7C5.8,16.4,6.3,17,7,17h10c0.7,0,1.2-0.6,1.2-1.2V9L12.4,13.1z"/>
</g>
</svg>
