<?xml version="1.0" encoding="UTF-8" ?>
<!DOCTYPE svg PUBLIC "-//W3C//DTD SVG 1.1//EN" "http://www.w3.org/Graphics/SVG/1.1/DTD/svg11.dtd">
<svg width="667pt" height="667pt" viewBox="0 0 667 667" version="1.1" xmlns="http://www.w3.org/2000/svg">
<g id="#004985ff">
</g>
<g id="#ffffffff">
<path fill="#ffffff" opacity="1.00" d=" M 310.24 215.26 C 323.97 200.53 343.82 191.76 363.97 191.63 C 377.66 191.63 391.35 191.58 405.04 191.66 C 409.48 191.55 413.37 195.59 413.21 200.00 C 413.29 217.67 413.26 235.33 413.23 253.00 C 413.47 257.52 409.56 261.66 405.02 261.58 C 391.66 261.72 378.29 261.54 364.93 261.65 C 362.07 261.49 359.68 264.15 359.90 266.96 C 359.83 277.38 359.90 287.82 359.88 298.25 C 374.95 298.29 390.02 298.19 405.08 298.29 C 410.40 298.15 414.60 303.94 412.87 308.97 C 408.48 326.61 404.08 344.25 399.64 361.88 C 398.83 365.80 394.91 368.51 390.98 368.24 C 380.61 368.28 370.24 368.23 359.88 368.25 C 359.87 400.85 359.88 433.46 359.88 466.06 C 360.23 470.50 356.56 474.80 352.04 474.82 C 334.33 474.95 316.61 474.84 298.90 474.88 C 295.84 475.04 292.70 473.58 291.14 470.89 C 289.62 468.54 290.04 465.63 289.98 462.99 C 290.03 431.41 289.99 399.83 290.00 368.25 C 279.33 368.21 268.67 368.34 258.01 368.20 C 253.72 368.23 249.84 364.38 250.02 360.06 C 249.97 342.37 250.01 324.66 250.00 306.97 C 249.61 302.43 253.54 298.22 258.09 298.29 C 268.72 298.18 279.36 298.29 290.00 298.25 C 290.00 287.50 290.01 276.75 289.99 266.00 C 289.93 247.32 297.44 228.83 310.24 215.26 M 326.08 223.09 C 314.22 233.61 306.88 249.14 306.63 265.03 C 306.58 278.89 306.69 292.76 306.58 306.62 C 306.70 311.16 302.59 315.16 298.05 314.87 C 287.58 314.90 277.10 314.86 266.63 314.88 C 266.62 327.12 266.63 339.37 266.62 351.62 C 277.10 351.65 287.58 351.59 298.05 351.63 C 302.71 351.32 306.83 355.53 306.59 360.15 C 306.67 392.85 306.60 425.55 306.63 458.25 C 318.83 458.25 331.04 458.25 343.25 458.25 C 343.27 425.52 343.23 392.79 343.27 360.06 C 343.09 355.78 346.67 351.69 351.02 351.66 C 362.37 351.55 373.72 351.66 385.06 351.62 C 388.12 339.37 391.19 327.13 394.24 314.88 C 380.14 314.87 366.04 314.88 351.94 314.88 C 347.52 315.23 343.34 311.48 343.30 307.04 C 343.19 293.35 343.25 279.65 343.28 265.95 C 343.31 254.99 352.94 245.10 363.95 245.02 C 374.84 244.95 385.73 245.03 396.63 244.99 C 396.62 232.75 396.62 220.50 396.62 208.25 C 385.72 208.26 374.82 208.22 363.91 208.27 C 350.06 208.44 336.38 213.83 326.08 223.09 Z" />
</g>
</svg>
