<?xml version="1.0" encoding="UTF-8"?>
<svg width="143px" height="48px" viewBox="0 0 143 48" version="1.1" xmlns="http://www.w3.org/2000/svg" xmlns:xlink="http://www.w3.org/1999/xlink">
    <!-- Generator: Sketch 51.2 (57519) - http://www.bohemiancoding.com/sketch -->
    <title>HH Logo Horizontal Copy</title>
    <desc>Created with Sketch.</desc>
    <defs>
        <polygon id="path-1" points="0.239720579 0.0601290323 10.1232113 0.0601290323 10.1232113 9.28980645 0.239720579 9.28980645"></polygon>
        <polygon id="path-3" points="0.30353809 0.0600774194 6.05837419 0.0600774194 6.05837419 9.28980645 0.30353809 9.28980645"></polygon>
        <polygon id="path-5" points="0.000516129032 0.26043871 11.616 0.26043871 11.616 13.8418581 0.000516129032 13.8418581"></polygon>
        <polygon id="path-7" points="0.000516129032 0.179045161 11.6163097 0.179045161 11.6163097 13.7609806 0.000516129032 13.7609806"></polygon>
        <polygon id="path-9" points="0.000516129032 0.341832258 11.6163097 0.341832258 11.6163097 20.6446452 0.000516129032 20.6446452"></polygon>
        <polygon id="path-11" points="0.152774194 0.0428387097 11.7687742 0.0428387097 11.7687742 20.4151226 0.152774194 20.4151226"></polygon>
    </defs>
    <g id="Symbols" stroke="none" stroke-width="1" fill="none" fill-rule="evenodd">
        <g id="Header/Navigation-Bar" transform="translate(-24.000000, -16.000000)">
            <g id="Logo/Horizontal" transform="translate(24.000000, 16.000000)">
                <g id="HH-Logo-Horizontal">
                    <path d="M42.4405677,22.6629161 C42.4405677,22.4884645 42.597471,22.3320774 42.7714065,22.3320774 L43.9213419,22.3320774 C44.1128258,22.3320774 44.2521806,22.4884645 44.2521806,22.6629161 L44.2521806,27.5233032 L50.6268903,27.5233032 L50.6268903,22.6629161 C50.6268903,22.4884645 50.7662452,22.3320774 50.957729,22.3320774 L52.1076645,22.3320774 C52.2816,22.3320774 52.4385032,22.4884645 52.4385032,22.6629161 L52.4385032,34.1937548 C52.4385032,34.3676903 52.2816,34.5251097 52.1076645,34.5251097 L50.957729,34.5251097 C50.7662452,34.5251097 50.6268903,34.3676903 50.6268903,34.1937548 L50.6268903,29.1599484 L44.2521806,29.1599484 L44.2521806,34.1937548 C44.2521806,34.3676903 44.1128258,34.5251097 43.9213419,34.5251097 L42.7714065,34.5251097 C42.597471,34.5251097 42.4405677,34.3676903 42.4405677,34.1937548 L42.4405677,22.6629161 Z" id="Fill-1" fill="#004B88"></path>
                    <path d="M61.5819871,19.9109161 C61.5819871,19.3710452 62.0176,18.9354323 62.557471,18.9354323 C63.0973419,18.9354323 63.5505032,19.3710452 63.5505032,19.9109161 C63.5505032,20.4507871 63.0973419,20.9034323 62.557471,20.9034323 C62.0176,20.9034323 61.5819871,20.4507871 61.5819871,19.9109161 M57.5933419,19.9109161 C57.5933419,19.3710452 58.0289548,18.9354323 58.5688258,18.9354323 C59.1086968,18.9354323 59.5613419,19.3710452 59.5613419,19.9109161 C59.5613419,20.4507871 59.1086968,20.9034323 58.5688258,20.9034323 C58.0289548,20.9034323 57.5933419,20.4507871 57.5933419,19.9109161 M60.5538581,32.9576258 C63.0452129,32.9576258 65.0828903,30.9364645 65.0828903,28.4461419 C65.0828903,25.9723355 63.0452129,23.8995613 60.5538581,23.8995613 C58.0810839,23.8995613 56.0428903,25.9723355 56.0428903,28.4461419 C56.0428903,30.9364645 58.0810839,32.9576258 60.5538581,32.9576258 M60.5538581,22.1581419 C64.037729,22.1581419 66.8248258,24.962271 66.8248258,28.4461419 C66.8248258,31.9300129 64.037729,34.6990452 60.5538581,34.6990452 C57.0710194,34.6990452 54.3009548,31.9300129 54.3009548,28.4461419 C54.3009548,24.962271 57.0710194,22.1581419 60.5538581,22.1581419" id="Fill-3" fill="#004B88"></path>
                    <path d="M74.1915871,22.1578839 C75.863329,22.1578839 77.2398452,22.7674323 78.4243613,23.7780129 C78.5632,23.9168516 78.5807484,24.1264 78.4413935,24.2652387 C78.1802323,24.5439484 77.9185548,24.8051097 77.6573935,25.0843355 C77.5180387,25.2407226 77.3792,25.2231742 77.2047484,25.0667871 C76.3861677,24.3524645 75.3059097,23.882271 74.2437161,23.882271 C71.7699097,23.882271 69.8715871,25.9725935 69.8715871,28.4107871 C69.8715871,30.8324645 71.7699097,32.922271 74.2437161,32.922271 C75.6893935,32.922271 76.6824258,32.3994323 76.8563613,32.330271 L76.8563613,30.3793032 L75.1490065,30.3793032 C74.9575226,30.3793032 74.8186839,30.2394323 74.8186839,30.0654968 L74.8186839,29.0554323 C74.8186839,28.8639484 74.9575226,28.7240774 75.1490065,28.7240774 L78.319071,28.7240774 C78.4940387,28.7240774 78.6328774,28.8814968 78.6328774,29.0554323 C78.6328774,30.4489806 78.6504258,31.8776258 78.6504258,33.2701419 C78.6504258,33.3578839 78.5807484,33.4967226 78.511071,33.5488516 C78.511071,33.5488516 76.7175226,34.6987871 74.1915871,34.6987871 C70.7252645,34.6987871 67.9206194,31.9297548 67.9206194,28.4458839 C67.9206194,24.962529 70.7252645,22.1578839 74.1915871,22.1578839" id="Fill-5" fill="#004B88"></path>
                    <path d="M80.0948129,32.7655226 C80.2517161,32.5389419 80.391071,32.2777806 80.5474581,32.0517161 C80.7048774,31.8251355 80.9479742,31.7554581 81.1399742,31.9123613 C81.2452645,31.9995871 82.5856516,33.1139097 83.927071,33.1139097 C85.1291355,33.1139097 85.895071,32.3825548 85.895071,31.4942968 C85.895071,30.4491355 84.9897806,29.7869419 83.2653935,29.0726194 C81.4878452,28.3242323 80.0948129,27.4003613 80.0948129,25.3802323 C80.0948129,24.0217806 81.1399742,22.1580387 83.9100387,22.1580387 C85.6519742,22.1580387 86.9582968,23.0638452 87.1322323,23.1856516 C87.271071,23.2728774 87.4109419,23.5164903 87.2364903,23.7781677 C87.0971355,23.9866839 86.9407484,24.2308129 86.8008774,24.4398452 C86.6620387,24.6664258 86.4354581,24.7706839 86.1918452,24.6142968 C86.0690065,24.5441032 84.8504258,23.743071 83.8398452,23.743071 C82.3766194,23.743071 81.871329,24.6664258 81.871329,25.3105548 C81.871329,26.303071 82.6382968,26.9131355 84.0839742,27.5051355 C86.1046194,28.3242323 87.8284903,29.2821677 87.8284903,31.407071 C87.8284903,33.2186839 86.2088774,34.6989419 83.9441032,34.6989419 C81.8197161,34.6989419 80.4777806,33.5841032 80.1995871,33.3229419 C80.0426839,33.1835871 79.9208774,33.0617806 80.0948129,32.7655226" id="Fill-7" fill="#004B88"></path>
                    <path d="M89.7258839,22.7501419 C89.7258839,22.5235613 89.9003355,22.3320774 90.1449806,22.3320774 L91.154529,22.3320774 C91.3805935,22.3320774 91.5720774,22.5235613 91.5720774,22.7501419 L91.5720774,27.5754323 L96.4845935,22.506529 C96.554271,22.4193032 96.6765935,22.3320774 96.8149161,22.3320774 L98.122271,22.3320774 C98.4350452,22.3320774 98.6089806,22.698529 98.3653677,22.9591742 L93.3315613,28.0802065 L98.6616258,33.9501419 C98.8009806,34.1240774 98.7137548,34.5251097 98.3478194,34.5251097 L96.9547871,34.5251097 C96.7803355,34.5251097 96.6765935,34.4554323 96.6409806,34.4027871 L91.5720774,28.690271 L91.5720774,34.106529 C91.5720774,34.3336258 91.3805935,34.5251097 91.154529,34.5251097 L90.1449806,34.5251097 C89.9003355,34.5251097 89.7258839,34.3336258 89.7258839,34.106529 L89.7258839,22.7501419 Z" id="Fill-9" fill="#004B88"></path>
                    <path d="M104.913858,32.9575226 C107.404181,32.9575226 109.442374,30.9363613 109.442374,28.4460387 C109.442374,25.9727484 107.404181,23.8994581 104.913858,23.8994581 C102.440052,23.8994581 100.402374,25.9727484 100.402374,28.4460387 C100.402374,30.9363613 102.440052,32.9575226 104.913858,32.9575226 M104.913858,22.1580387 C108.397213,22.1580387 111.18431,24.9621677 111.18431,28.4460387 C111.18431,31.9299097 108.397213,34.6994581 104.913858,34.6994581 C101.430503,34.6994581 98.661471,31.9299097 98.661471,28.4460387 C98.661471,24.9621677 101.430503,22.1580387 104.913858,22.1580387" id="Fill-11" fill="#004B88"></path>
                    <path d="M113.168929,22.6629161 C113.168929,22.4884645 113.3088,22.3320774 113.499768,22.3320774 L114.649703,22.3320774 C114.823639,22.3320774 114.980542,22.4884645 114.980542,22.6629161 L114.980542,32.9049806 L119.700542,32.9049806 C119.892542,32.9049806 120.031381,33.0613677 120.031381,33.2363355 L120.031381,34.1937548 C120.031381,34.3676903 119.892542,34.5251097 119.700542,34.5251097 L113.499768,34.5251097 C113.3088,34.5251097 113.168929,34.3676903 113.168929,34.1937548 L113.168929,22.6629161 Z" id="Fill-13" fill="#004B88"></path>
                    <path d="M128.147768,30.3788903 L126.005316,25.6072774 L125.918606,25.6072774 L123.792671,30.3788903 L128.147768,30.3788903 Z M120.257187,34.0717935 L125.6048,22.349471 C125.656929,22.2446968 125.813832,22.157471 125.900542,22.157471 L126.073961,22.157471 C126.161187,22.157471 126.319123,22.2446968 126.371252,22.349471 L131.683768,34.0717935 C131.788026,34.2983742 131.648671,34.5249548 131.386994,34.5249548 L130.289703,34.5249548 C130.081187,34.5249548 129.959381,34.4201806 129.889703,34.2632774 L128.809445,31.8766968 L123.113961,31.8766968 C122.765574,32.6787613 122.399639,33.4627613 122.050735,34.2632774 C121.999123,34.3856 121.859252,34.5249548 121.650735,34.5249548 L120.553445,34.5249548 C120.292284,34.5249548 120.152413,34.2983742 120.257187,34.0717935 Z" id="Fill-15" fill="#004B88"></path>
                    <path d="M132.605419,22.4713806 C132.605419,22.2974452 132.762323,22.1580903 132.936774,22.1580903 L133.371871,22.1580903 L140.931097,30.9013161 L140.948645,30.9013161 L140.948645,22.6628645 C140.948645,22.488929 141.089032,22.3320258 141.28,22.3320258 L142.394323,22.3320258 C142.568774,22.3320258 142.725677,22.488929 142.725677,22.6628645 L142.725677,34.3851871 C142.725677,34.5596387 142.568774,34.6989935 142.394323,34.6989935 L141.941677,34.6989935 L134.381935,25.7111226 L134.364387,25.7111226 L134.364387,34.1937032 C134.364387,34.3676387 134.225548,34.5250581 134.033548,34.5250581 L132.936774,34.5250581 C132.762323,34.5250581 132.605419,34.3676387 132.605419,34.1937032 L132.605419,22.4713806 Z" id="Fill-17" fill="#004B88"></path>
                    <path d="M58.3198968,39.0991484 C58.3198968,38.9711484 58.4355097,38.8560516 58.5629935,38.8560516 L59.4094452,38.8560516 C59.5374452,38.8560516 59.6530581,38.9711484 59.6530581,39.0991484 L59.6530581,47.5853419 C59.6530581,47.7138581 59.5374452,47.8289548 59.4094452,47.8289548 L58.5629935,47.8289548 C58.4355097,47.8289548 58.3198968,47.7138581 58.3198968,47.5853419 L58.3198968,39.0991484 Z" id="Fill-19" fill="#004B88"></path>
                    <path d="M64.5247484,39.0991484 C64.5247484,38.9711484 64.6403613,38.8560516 64.7683613,38.8560516 L65.6137806,38.8560516 C65.7552,38.8560516 65.8579097,38.9711484 65.8579097,39.0991484 L65.8579097,42.6759226 L70.5495226,42.6759226 L70.5495226,39.0991484 C70.5495226,38.9711484 70.6522323,38.8560516 70.7936516,38.8560516 L71.639071,38.8560516 C71.7675871,38.8560516 71.8826839,38.9711484 71.8826839,39.0991484 L71.8826839,47.5853419 C71.8826839,47.7138581 71.7675871,47.8289548 71.639071,47.8289548 L70.7936516,47.8289548 C70.6522323,47.8289548 70.5495226,47.7138581 70.5495226,47.5853419 L70.5495226,43.8816 L65.8579097,43.8816 L65.8579097,47.5853419 C65.8579097,47.7138581 65.7552,47.8289548 65.6137806,47.8289548 L64.7683613,47.8289548 C64.6403613,47.8289548 64.5247484,47.7138581 64.5247484,47.5853419 L64.5247484,39.0991484 Z" id="Fill-21" fill="#004B88"></path>
                    <path d="M78.7545806,44.7785806 L77.1778065,41.2658065 L77.1138065,41.2658065 L75.5499355,44.7785806 L78.7545806,44.7785806 Z M72.9476129,47.496 L76.8830968,38.8689032 C76.9212903,38.7914839 77.0374194,38.7264516 77.1014194,38.7264516 L77.2294194,38.7264516 C77.2934194,38.7264516 77.4085161,38.7914839 77.4472258,38.8689032 L81.3569032,47.496 C81.4343226,47.6627097 81.3316129,47.8289032 81.1390968,47.8289032 L80.3313548,47.8289032 C80.1775484,47.8289032 80.0882581,47.7525161 80.0371613,47.6374194 L79.2418065,45.8805161 L75.0498065,45.8805161 C74.7932903,46.4699355 74.523871,47.0474839 74.267871,47.6374194 C74.2296774,47.7272258 74.1269677,47.8289032 73.9726452,47.8289032 L73.1654194,47.8289032 C72.9734194,47.8289032 72.8707097,47.6627097 72.9476129,47.496 Z" id="Fill-23" fill="#004B88"></path>
                    <path d="M82.4219355,39.0991484 C82.4219355,38.9711484 82.5246452,38.8560516 82.6655484,38.8560516 L83.5114839,38.8560516 C83.6394839,38.8560516 83.7550968,38.9711484 83.7550968,39.0991484 L83.7550968,46.6366968 L87.2291613,46.6366968 C87.3700645,46.6366968 87.4727742,46.7523097 87.4727742,46.8808258 L87.4727742,47.5853419 C87.4727742,47.7138581 87.3700645,47.8289548 87.2291613,47.8289548 L82.6655484,47.8289548 C82.5246452,47.8289548 82.4219355,47.7138581 82.4219355,47.5853419 L82.4219355,39.0991484 Z" id="Fill-25" fill="#004B88"></path>
                    <g id="Group-29" transform="translate(87.741935, 38.667097)">
                        <mask id="mask-2" fill="white">
                            <use xlink:href="#path-1"></use>
                        </mask>
                        <g id="Clip-28"></g>
                        <path d="M1.83323871,0.25316129 C1.85904516,0.150451613 1.96175484,0.0601290323 2.06446452,0.0601290323 L2.26988387,0.0601290323 C2.34575484,0.0601290323 2.46188387,0.12516129 2.48769032,0.201032258 L5.1664,6.75225806 L5.2180129,6.75225806 L7.88433548,0.201032258 C7.90962581,0.12516129 8.01233548,0.0601290323 8.10214194,0.0601290323 L8.30652903,0.0601290323 C8.40975484,0.0601290323 8.51194839,0.150451613 8.53775484,0.25316129 L10.114529,8.86735484 C10.1527226,9.04645161 10.0629161,9.16206452 9.88433548,9.16206452 L9.0507871,9.16206452 C8.93569032,9.16206452 8.83298065,9.07277419 8.80717419,8.98245161 L7.85852903,3.25290323 L7.82033548,3.25290323 L5.51220645,9.14916129 C5.48691613,9.22658065 5.41052903,9.29058065 5.2944,9.29058065 L5.06369032,9.29058065 C4.9620129,9.29058065 4.87220645,9.22658065 4.84588387,9.14916129 L2.52536774,3.25290323 L2.47427097,3.25290323 L1.55091613,8.98245161 C1.53904516,9.07277419 1.42291613,9.16206452 1.32072258,9.16206452 L0.487690323,9.16206452 C0.308077419,9.16206452 0.218270968,9.04645161 0.244077419,8.86735484 L1.83323871,0.25316129 Z" id="Fill-27" fill="#004B88" mask="url(#mask-2)"></path>
                    </g>
                    <g id="Group-32" transform="translate(98.580645, 38.667097)">
                        <mask id="mask-4" fill="white">
                            <use xlink:href="#path-3"></use>
                        </mask>
                        <g id="Clip-31"></g>
                        <path d="M0.366503226,7.86756129 C0.482632258,7.70085161 0.584309677,7.50885161 0.699922581,7.34162581 C0.815535484,7.17543226 0.995148387,7.12381935 1.13605161,7.23943226 C1.21295484,7.30343226 2.19979355,8.12407742 3.18663226,8.12407742 C4.07230968,8.12407742 4.63540645,7.58472258 4.63540645,6.93181935 C4.63540645,6.1627871 3.96856774,5.67556129 2.69992258,5.14962581 C1.39205161,4.59788387 0.366503226,3.91917419 0.366503226,2.43169032 C0.366503226,1.43246452 1.13605161,0.0600774194 3.17372903,0.0600774194 C4.45579355,0.0600774194 5.41734194,0.727432258 5.54534194,0.816722581 C5.64753548,0.88123871 5.75076129,1.06033548 5.62276129,1.25285161 C5.52005161,1.40562581 5.40495484,1.58575484 5.30224516,1.74007742 C5.19953548,1.9067871 5.03282581,1.98369032 4.8532129,1.86807742 C4.76392258,1.81698065 3.86637419,1.22704516 3.12211613,1.22704516 C2.0459871,1.22704516 1.67437419,1.9067871 1.67437419,2.38059355 C1.67437419,3.11194839 2.23850323,3.56046452 3.30224516,3.99607742 C4.7892129,4.59788387 6.05837419,5.30394839 6.05837419,6.86781935 C6.05837419,8.20098065 4.86611613,9.2900129 3.19953548,9.2900129 C1.63566452,9.2900129 0.648825806,8.4704 0.443406452,8.27788387 C0.327793548,8.17569032 0.237987097,8.08588387 0.366503226,7.86756129" id="Fill-30" fill="#004B88" mask="url(#mask-4)"></path>
                    </g>
                    <path d="M107.421419,40.0603355 L105.331613,40.0603355 C105.191226,40.0603355 105.088516,39.9452387 105.088516,39.8172387 L105.088516,39.0998194 C105.088516,38.9718194 105.191226,38.8556903 105.331613,38.8556903 L110.843871,38.8556903 C110.984774,38.8556903 111.088,38.9718194 111.088,39.0998194 L111.088,39.8172387 C111.088,39.9452387 110.984774,40.0603355 110.843871,40.0603355 L108.754581,40.0603355 L108.754581,47.5849806 C108.754581,47.7134968 108.638968,47.8296258 108.510968,47.8296258 L107.664516,47.8296258 C107.537032,47.8296258 107.421419,47.7134968 107.421419,47.5849806 L107.421419,40.0603355 Z" id="Fill-33" fill="#004B88"></path>
                    <path d="M116.138684,44.7785806 L114.56191,41.2658065 L114.498426,41.2658065 L112.934039,44.7785806 L116.138684,44.7785806 Z M110.331716,47.496 L114.2672,38.8689032 C114.305394,38.7914839 114.421006,38.7264516 114.485523,38.7264516 L114.613523,38.7264516 C114.677006,38.7264516 114.793135,38.7914839 114.830813,38.8689032 L118.741006,47.496 C118.818426,47.6627097 118.715716,47.8289032 118.5232,47.8289032 L117.715974,47.8289032 C117.561652,47.8289032 117.472361,47.7525161 117.421265,47.6374194 L116.62591,45.8805161 L112.43391,45.8805161 C112.17791,46.4699355 111.90849,47.0474839 111.65249,47.6374194 C111.613781,47.7272258 111.511071,47.8289032 111.357265,47.8289032 L110.549523,47.8289032 C110.357523,47.8289032 110.255329,47.6627097 110.331716,47.496 Z" id="Fill-35" fill="#004B88"></path>
                    <path d="M122.805523,46.6112516 C124.68991,46.6112516 126.061265,45.2264774 126.061265,43.3297032 C126.061265,41.4458323 124.68991,40.0734452 122.805523,40.0734452 L121.113652,40.0734452 L121.113652,46.6112516 L122.805523,46.6112516 Z M119.805781,39.0995097 C119.805781,38.9715097 119.90849,38.8558968 120.03649,38.8558968 L122.985135,38.8558968 C125.458942,38.8558968 127.484748,40.8688 127.484748,43.3297032 C127.484748,45.816929 125.458942,47.8288 122.985135,47.8288 L120.03649,47.8288 C119.90849,47.8288 119.805781,47.7137032 119.805781,47.5857032 L119.805781,39.0995097 Z" id="Fill-37" fill="#004B88"></path>
                    <g id="Group-41" transform="translate(0.000000, 20.602581)">
                        <mask id="mask-6" fill="white">
                            <use xlink:href="#path-5"></use>
                        </mask>
                        <g id="Clip-40"></g>
                        <polygon id="Fill-39" fill="#0072B4" mask="url(#mask-6)" points="11.616 13.8418581 0 7.05114839 11.616 0.26043871"></polygon>
                    </g>
                    <polygon id="Fill-42" fill="#004B88" points="23.3783226 14.0722065 34.9943226 20.8629161 23.3783226 27.6536258"></polygon>
                    <polygon id="Fill-44" fill="#00BFF2" points="34.994271 34.4444387 23.378271 27.6542452 34.994271 20.8630194"></polygon>
                    <polygon id="Fill-46" fill="#0072B4" points="23.3783226 27.6536258 11.6157419 20.8634323 23.3783226 14.0722065"></polygon>
                    <polygon id="Fill-48" fill="#85B9E4" points="11.616 7.28165161 23.3785806 14.0723613 11.616 20.863071"></polygon>
                    <polygon id="Fill-50" fill="#85B9E4" points="23.3783226 41.2357677 11.6157419 34.4455742 23.3783226 27.6538323"></polygon>
                    <polygon id="Fill-52" fill="#004B88" points="11.616 20.8630194 23.3785806 27.6532129 11.616 34.4444387"></polygon>
                    <g id="Group-56" transform="translate(0.000000, 13.892903)">
                        <mask id="mask-8" fill="white">
                            <use xlink:href="#path-7"></use>
                        </mask>
                        <g id="Clip-55"></g>
                        <polygon id="Fill-54" fill="#00BFF2" mask="url(#mask-8)" points="0.000309677419 0.179045161 11.6163097 6.96975484 0.000309677419 13.7609806"></polygon>
                    </g>
                    <g id="Group-59" transform="translate(0.000000, 27.312258)">
                        <mask id="mask-10" fill="white">
                            <use xlink:href="#path-9"></use>
                        </mask>
                        <g id="Clip-58"></g>
                        <polygon id="Fill-57" fill="#00BFF2" mask="url(#mask-10)" points="0.000309677419 0.341832258 0.000309677419 13.8293161 11.6163097 20.6448 11.6163097 7.13202581"></polygon>
                    </g>
                    <g id="Group-62" transform="translate(23.225806, 0.473548)">
                        <mask id="mask-12" fill="white">
                            <use xlink:href="#path-11"></use>
                        </mask>
                        <g id="Clip-61"></g>
                        <polygon id="Fill-60" fill="#00BFF2" mask="url(#mask-12)" points="0.152774194 0.0424774194 0.152774194 13.6244129 11.7687742 20.4151226 11.7687742 6.8331871"></polygon>
                    </g>
                </g>
            </g>
        </g>
    </g>
</svg>