<?xml version="1.0" encoding="UTF-8" ?>
<!DOCTYPE svg PUBLIC "-//W3C//DTD SVG 1.1//EN" "http://www.w3.org/Graphics/SVG/1.1/DTD/svg11.dtd">
<svg width="667pt" height="667pt" viewBox="0 0 667 667" version="1.1" xmlns="http://www.w3.org/2000/svg">
<g id="#004985ff">
</g>
<g id="#ffffffff">
<path fill="#ffffff" opacity="1.00" d=" M 379.47 193.60 C 404.12 187.61 431.45 195.32 449.36 213.28 C 463.52 208.54 476.88 201.57 489.12 193.04 C 494.61 189.13 503.02 194.51 501.71 201.15 C 497.04 222.25 486.16 241.78 471.47 257.57 C 472.56 265.70 472.01 273.93 471.67 282.09 C 469.67 319.29 459.14 356.42 438.79 387.82 C 419.92 417.21 392.58 441.03 360.95 455.84 C 324.47 473.11 282.79 478.46 242.96 472.58 C 214.83 468.51 187.57 458.99 162.75 445.20 C 158.59 443.15 157.01 437.42 159.48 433.52 C 161.00 430.92 164.01 429.32 167.01 429.52 C 196.95 430.73 227.16 423.53 253.34 408.96 C 228.42 395.72 206.06 376.53 192.19 351.69 C 177.12 325.18 172.57 293.68 175.85 263.62 C 177.73 246.07 181.81 228.71 188.40 212.32 C 189.78 208.10 194.73 205.50 198.96 207.05 C 201.37 207.72 202.97 209.75 204.31 211.74 C 230.96 249.23 275.76 272.96 321.76 273.92 C 320.95 258.59 323.70 242.85 331.51 229.48 C 341.60 211.55 359.41 198.19 379.47 193.60 M 364.75 217.77 C 352.18 225.95 342.99 239.15 339.77 253.80 C 337.49 263.38 338.73 273.27 338.32 283.00 C 338.14 287.20 334.21 290.70 330.05 290.59 C 306.13 291.18 282.09 286.57 260.11 277.10 C 236.63 267.12 215.77 251.44 199.04 232.24 C 194.63 247.12 191.98 262.54 191.54 278.07 C 190.77 303.26 196.68 329.08 210.82 350.17 C 225.89 373.22 249.26 389.52 274.12 400.57 C 279.70 402.76 280.63 411.28 275.73 414.67 C 253.27 430.19 227.17 440.20 200.23 444.37 C 206.74 446.73 213.30 448.97 219.98 450.79 C 262.01 462.49 308.13 460.66 348.34 443.25 C 380.60 429.49 408.41 405.59 426.74 375.67 C 447.32 342.45 456.05 302.84 455.38 264.03 C 455.53 259.15 452.43 253.43 456.24 249.26 C 465.00 240.54 472.44 230.46 477.79 219.30 C 468.61 224.00 459.00 227.91 449.10 230.83 C 445.88 231.82 442.26 230.53 440.19 227.92 C 431.19 217.64 418.43 210.76 404.90 208.87 C 391.02 206.79 376.45 210.04 364.75 217.77 Z" />
</g>
</svg>
