<svg id="Layer_1" data-name="Layer 1" xmlns="http://www.w3.org/2000/svg" viewBox="0 0 475 483.93"><title>hh-footer-pattern-mobile</title><path d="M475,31.78V30.62L421.73.07a.43.43,0,0,0-.4,0h-.09l-59.9,34.35L301.45.07h-.25A.48.48,0,0,0,301,0h-.08L241.06,34.42,181.17.07h-.09a.43.43,0,0,0-.16,0,.43.43,0,0,0-.22.06L120.53,34.56a.48.48,0,0,0-.25.43v68.7L60.4,138a.52.52,0,0,0-.25.44v68.69L.25,241.51l-.11.11a.55.55,0,0,0-.14.32v207a.52.52,0,0,0,.25.44.55.55,0,0,0,.5,0l59.39-34.07v68.12a.52.52,0,0,0,.25.44.55.55,0,0,0,.5,0L121,449.33l59.39-34.07v68.12a.5.5,0,0,0,.25.44.55.55,0,0,0,.5,0l60.14-34.49,59.39-34.07v68.12a.5.5,0,0,0,.25.44.55.55,0,0,0,.5,0l60.13-34.49,60.13-34.5L475,384.28v-1.15l-53,30.41V346.28l53,30.41v-1.15l-27.76-15.92-24.76-14.2L475,315.3v-1.16l-47.81,27.42-5.21,3V277.3l36.82,21.12,16.2,9.29v-1.15l-3-1.75-49.48-28.38,26.07-14.95L475,246.31v-1.15l-32,18.36-21,12.05V208.31l53,30.41v-1.15L421.73,207a.48.48,0,0,0-.26-.07.4.4,0,0,0-.24.07l-59.39,34.06V104.27l59.64-34.21L475,100.76V99.61L422,69.19V1.36ZM181.42,1.31,240.05,35,181.42,68.62Zm-60.14,34L180.42,1.36V69.14l-59.14,33.92Zm-1,69.56V172.1l-8.42-4.83-50.21-28.8ZM61.14,139.33,112.85,169l6.92,4L61.14,206.59Zm59.14,34.49v67.26l-29.7-17-28.93-16.6ZM60.64,208l38,21.78,21.14,12.13-59.14,34L39.44,263.7,1.51,241.94ZM1,242.8,27.45,258l32.19,18.46L1,310.06Zm0,68.42L60.14,277.3v67.83L1,379.05ZM1,448V380.77L59.64,414.4Zm59.64-34.21L5,381.93l-3.53-2,16.78-9.63L60.64,346l59.13,33.91L85,399.83Zm.5,68.7V415.26l58.63,33.63ZM120.28,448l-3.41-2L61.65,414.4,91.2,397.45l29.08-16.68Zm0-69L61.14,345.13V277.3l59.14,33.92Zm.5-68.7L61.65,276.43l59.13-33.91,59.13,33.91Zm.5,137.68V380.77l58.63,33.63Zm54.46-37.17-54-30.95,27.92-16,30.72-17.62,0,67.25Zm4.68-65.73L121.28,379V311.22l59.14-33.92Zm0-69.56-58.64-33.63,5-2.87,53.64-30.75Zm1,207V415.26l58.63,33.63Zm54.92-36.92L181.92,414.4l20.6-11.81,38-21.82,0,67.23Zm4.22-66-28.2,16.17-30.94,17.75v-67.8l59.14-33.92Zm-59.14-35.06V277.3l53.38,30.61,5.25,3L231,316.14ZM240.56,310,181.92,276.4l58.64-33.63Zm0-68.41L233.05,246l-51.63,29.61V207.74l53.24-30.54,5.9-3.38Zm0-68.92-.52.3-58.62,33.63v0L121.28,241V104.28l.5-.28,59.64-34.22h0l59.14-33.91ZM301.7,1.36,360.33,35,301.7,68.62Zm-.26,68.56L344.72,45.1l16.12-9.24v67.83l-59.64,34.2L242.06,104l49.3-28.28Zm59.4,34.92V172.1l-2-1.15L302.2,138.47l51-29.25ZM300.19,138.5l-56.44,32.37-2.19,1.26V104.86l8.09,4.64ZM300.7,1.36V68.62L242.06,35Zm-59.14,34.5,58.63,33.62-7,4-51.67,29.63Zm58.63,171.63-58.63,33.63V173.86Zm-26.55,53.77,26.55,15.23-26.55,15.23-32.08,18.4V242.86Zm0,69,26.55,15.23-27.83,16-30.8,17.67v-67.3ZM241.56,448.1V380.77l58.63,33.63Zm59.14-34.49L296.33,411l-54.27-31.12,27.84-16,30.8-17.67Zm0-69-32.08-18.4L242.06,311l26.56-15.23,32.08-18.4Zm0-69-32.08-18.4L242.06,242l49.08-28.14,9.56-5.49Zm.5-68.7L242.06,173l59.14-34,59.13,34Zm59.64-33v67.83l-32.26,18.5L301.7,275.57V207.74l55.15-31.63Zm-26.77,122,26.26,15.07L334.07,326,301.7,344.56V277.3ZM301.7,482.52V415.26l58.63,33.63ZM360.84,448l-4.06-2.33L302.2,414.4l58.64-33.63Zm0-68.41-52.2,29.94-6.94,4V345.71l59.14-33.92ZM421,414.11,361.84,448V380.2L421,346.28Zm0-69L361.86,379V311.22L421,277.3Zm0-136.8v67.24l-32.08-18.4-26.56-15.23Zm-.53,68.12-59.13,33.89L302.2,276.43l59.14-33.91ZM421,69.19l-59.13,33.92,0-67.83L421,1.36Z" style="fill:#98c0e1"/></svg>