<?xml version="1.0" encoding="utf-8"?>
<!-- Generator: Adobe Illustrator 22.1.0, SVG Export Plug-In . SVG Version: 6.00 Build 0)  -->
<svg version="1.1" id="Layer_1" xmlns="http://www.w3.org/2000/svg" xmlns:xlink="http://www.w3.org/1999/xlink" x="0px" y="0px"
	 viewBox="0 0 24 24" style="enable-background:new 0 0 24 24;" xml:space="preserve">
<style type="text/css">
	.st0{fill:#004985;}
	.st1{fill:#FFFFFF;}
</style>
<title>Icon/Twitter</title>
<desc>Created with Sketch.</desc>
<g id="Symbols">
	<g id="Footer" transform="translate(-530.000000, -175.000000)">
		<g id="Icon_x2F_Twitter" transform="translate(530.000000, 175.000000)">
			<g id="Shapes_x2F_Circle">
				<g id="Mask">
					<circle id="path-1_1_" class="st0" cx="12" cy="12" r="12"/>
				</g>
			</g>
			<path id="Icon" class="st1" d="M18,7c-0.5,0.4-1.1,0.7-1.7,0.9c-0.9-1-2.5-1.2-3.5-0.2c-0.6,0.5-0.9,1.2-0.9,1.9v0.6
				c-2,0.1-3.9-0.9-5-2.5c0,0-2.2,5,2.8,7.2c-1.1,0.8-2.5,1.2-3.9,1.1c5,2.8,11.1,0,11.1-6.4c0-0.2,0-0.3,0-0.5
				C17.4,8.5,17.8,7.8,18,7z"/>
		</g>
	</g>
</g>
</svg>
