<?xml version="1.0" encoding="utf-8"?>
<!-- Generator: Adobe Illustrator 22.1.0, SVG Export Plug-In . SVG Version: 6.00 Build 0)  -->
<svg version="1.1" id="Layer_1" xmlns="http://www.w3.org/2000/svg" xmlns:xlink="http://www.w3.org/1999/xlink" x="0px" y="0px"
	 viewBox="0 0 20 20" style="enable-background:new 0 0 20 20;" xml:space="preserve">
<style type="text/css">
	.st0{clip-path:url(#SVGID_2_);fill:none;stroke:#004985;stroke-width:4;stroke-miterlimit:10;}
</style>
<title>Search Icon</title>
<desc>Created with Sketch.</desc>
<g>
	<defs>
		<path id="SVGID_1_" d="M12.9,14.3c-3.1,2.4-7.7,2.2-10.6-0.7c-3.1-3.1-3.1-8.2,0-11.3c3.1-3.1,8.2-3.1,11.3,0
			c2.9,2.9,3.1,7.4,0.7,10.6l5.7,5.7L18.6,20L12.9,14.3z"/>
	</defs>
	<clipPath id="SVGID_2_">
		<use xlink:href="#SVGID_1_"  style="overflow:visible;"/>
	</clipPath>
	<path class="st0" d="M12.9,14.3c-3.1,2.4-7.7,2.2-10.6-0.7c-3.1-3.1-3.1-8.2,0-11.3s8.2-3.1,11.3,0c2.9,2.9,3.1,7.4,0.7,10.6
		l5.7,5.7L18.6,20L12.9,14.3z"/>
</g>
</svg>
