<?xml version="1.0" encoding="UTF-8" ?>
<!DOCTYPE svg PUBLIC "-//W3C//DTD SVG 1.1//EN" "http://www.w3.org/Graphics/SVG/1.1/DTD/svg11.dtd">
<svg width="667pt" height="667pt" viewBox="0 0 667 667" version="1.1" xmlns="http://www.w3.org/2000/svg">
<g id="#004985ff">
</g>
<g id="#ffffffff">
<path fill="#ffffff" opacity="1.00" d=" M 257.17 192.21 C 263.40 191.39 269.70 191.66 275.97 191.62 C 317.64 191.63 359.31 191.61 400.98 191.63 C 417.79 191.81 434.45 197.89 447.42 208.58 C 464.20 222.20 474.55 243.35 474.85 264.98 C 474.91 306.67 474.86 348.35 474.88 390.04 C 474.83 397.02 475.17 404.06 474.06 410.99 C 471.70 427.24 463.75 442.61 451.87 453.95 C 438.40 467.04 419.82 474.68 401.04 474.86 C 356.04 474.89 311.04 474.87 266.04 474.87 C 249.78 474.81 233.61 469.23 220.77 459.26 C 202.88 445.59 191.78 423.53 191.63 401.00 C 191.61 355.99 191.63 310.98 191.63 265.97 C 191.72 250.06 197.04 234.25 206.64 221.56 C 218.62 205.50 237.27 194.61 257.17 192.21 M 264.25 208.31 C 248.56 208.86 233.29 216.15 222.94 227.95 C 213.67 238.31 208.37 252.09 208.26 265.99 C 208.24 310.69 208.25 355.38 208.25 400.07 C 208.30 411.60 211.80 423.10 218.32 432.62 C 227.11 445.66 241.36 454.89 256.89 457.42 C 263.20 458.56 269.63 458.20 276.01 458.25 C 317.67 458.24 359.33 458.28 400.99 458.23 C 418.06 458.01 434.76 449.77 445.37 436.42 C 453.66 426.20 458.24 413.10 458.25 399.96 C 458.25 355.32 458.26 310.69 458.24 266.06 C 458.16 249.87 450.93 233.91 438.82 223.18 C 428.30 213.65 414.20 208.24 400.00 208.25 C 354.75 208.29 309.50 208.18 264.25 208.31 Z" />
<path fill="#ffffff" opacity="1.00" d=" M 408.36 250.51 C 415.29 247.93 423.70 252.82 424.77 260.16 C 426.22 266.96 421.00 274.16 414.10 274.90 C 407.44 276.00 400.61 270.80 399.94 264.08 C 399.05 258.30 402.79 252.28 408.36 250.51 Z" />
<path fill="#ffffff" opacity="1.00" d=" M 324.49 271.74 C 339.20 269.45 354.72 272.73 367.22 280.84 C 379.78 288.88 389.23 301.66 393.18 316.05 C 396.73 328.64 396.15 342.37 391.47 354.59 C 386.00 369.08 374.85 381.35 360.88 388.08 C 345.72 395.53 327.45 396.34 311.70 390.22 C 297.72 384.89 285.83 374.28 279.03 360.94 C 273.63 350.55 271.35 338.58 272.45 326.92 C 273.88 310.62 282.20 295.09 294.93 284.83 C 303.37 277.91 313.71 273.38 324.49 271.74 M 324.44 288.66 C 308.17 291.94 294.48 305.05 290.33 321.10 C 286.78 334.10 289.55 348.62 297.64 359.40 C 305.97 370.76 319.89 377.88 334.02 377.65 C 345.71 377.68 357.35 372.86 365.56 364.53 C 375.15 355.12 380.12 341.21 378.57 327.86 C 377.33 315.98 371.10 304.72 361.70 297.36 C 351.39 289.13 337.33 285.80 324.44 288.66 Z" />
</g>
</svg>
