<?xml version="1.0" encoding="UTF-8" ?>
<!DOCTYPE svg PUBLIC "-//W3C//DTD SVG 1.1//EN" "http://www.w3.org/Graphics/SVG/1.1/DTD/svg11.dtd">
<svg width="667pt" height="667pt" viewBox="0 0 667 667" version="1.1" xmlns="http://www.w3.org/2000/svg">
<g id="#004985ff">
</g>
<g id="#ffffffff">
<path fill="#ffffff" opacity="1.00" d=" M 286.30 192.43 C 323.19 191.40 360.10 191.42 397.00 192.37 C 424.67 193.24 452.45 193.71 479.91 197.50 C 502.39 200.15 521.88 218.57 525.78 240.86 C 535.69 298.04 535.76 356.94 526.10 414.16 C 523.59 431.67 511.60 447.31 495.62 454.74 C 486.78 459.02 476.86 460.03 467.23 461.17 C 446.90 463.29 426.46 464.12 406.04 464.80 C 352.71 466.47 299.30 466.18 246.00 463.49 C 230.25 462.49 214.39 461.71 198.88 458.59 C 179.16 454.52 162.34 438.54 157.71 418.89 C 150.60 380.05 148.74 340.37 150.65 300.97 C 151.74 280.45 154.06 259.99 157.74 239.77 C 162.25 218.67 180.62 201.54 201.92 198.30 C 229.81 193.85 258.14 193.45 286.30 192.43 M 319.35 208.42 C 285.92 208.98 252.44 209.54 219.13 212.72 C 210.44 213.87 201.30 214.26 193.41 218.47 C 183.15 223.77 175.41 233.97 173.61 245.43 C 170.56 263.14 168.46 281.03 167.42 298.97 C 165.31 337.73 167.01 376.80 173.93 415.03 C 176.09 424.12 182.16 432.12 189.97 437.15 C 197.05 441.96 205.72 443.17 214.02 444.20 C 228.95 445.98 243.97 446.78 258.98 447.48 C 314.93 449.82 370.98 449.80 426.92 447.36 C 444.48 446.41 462.13 445.69 479.47 442.61 C 494.49 439.92 507.19 427.24 509.56 412.13 C 519.00 356.91 519.01 300.07 509.59 244.85 C 507.20 229.21 493.72 216.08 478.03 214.06 C 459.43 211.28 440.60 210.62 421.84 209.77 C 387.69 208.57 353.52 207.98 319.35 208.42 Z" />
<path fill="#ffffff" opacity="1.00" d=" M 301.41 266.70 C 303.76 265.83 306.40 266.27 308.53 267.53 C 340.38 285.65 372.25 303.72 404.07 321.88 C 407.78 323.88 409.32 328.86 407.45 332.63 C 406.19 335.61 402.99 336.86 400.40 338.40 C 369.78 355.78 339.19 373.21 308.58 390.60 C 305.24 392.75 300.48 392.15 297.88 389.12 C 296.05 387.23 295.67 384.51 295.73 382.00 C 295.78 346.34 295.72 310.68 295.76 275.03 C 295.55 271.38 297.93 267.82 301.41 266.70 M 312.39 288.90 C 312.36 315.68 312.39 342.47 312.37 369.25 C 335.94 355.88 359.48 342.47 383.04 329.08 C 359.50 315.67 335.94 302.29 312.39 288.90 Z" />
</g>
</svg>
